# xmcd CD database file
#
# Track frame offsets:
#	150
#	13691
#	28956
#	42602
#	62410
#	79512
#	91053
#	111156
#	132154
#	147532
#
# Disc length: 2115 seconds
#
# Revision: 0
# Processed by: cddbd v1.5PL3 Copyright (c) Steve Scherf et al.
# Submitted via: CDex 1.40Beta8
#
DISCID=8308410a
DTITLE=Brad Paisley - Pickin' On Brad Paisley
DYEAR=2003
DGENRE=Country
TTITLE0=We Danced
TTITLE1=Mud On The Tires
TTITLE2=I'm Gonna Miss Her
TTITLE3=He Didn't Have To Be
TTITLE4=Celebrity
TTITLE5=It Never Would Have Worked Out Anyway
TTITLE6=I Wish You'd Stay
TTITLE7=That's Love
TTITLE8=Too Country
TTITLE9=Sittin' On Top Of The World
EXTD=YEAR: 2003 ID3G: 2
EXTT0=
EXTT1=
EXTT2=
EXTT3=
EXTT4=
EXTT5=
EXTT6=
EXTT7=
EXTT8=
EXTT9=
PLAYORDER=
